<svg xmlns="http://www.w3.org/2000/svg" width="1200" height="420" viewBox="0 0 1200 420"><rect width="1200" height="420" fill="white"/><text x="600" y="38" text-anchor="middle" font-family="Arial" font-size="26" font-weight="700">Fig 6 — Screen Time Breakdown by Activity</text><text x="300" y="85" text-anchor="middle" font-family="Arial" font-size="20">Average Split of Screen Time</text><circle cx="300" cy="250" r="125" fill="#64c1a5"/><path d="M300 250 L300 125 A125 125 0 0 1 400 325 Z" fill="#8da0cb"/><path d="M300 250 L400 325 A125 125 0 0 1 190 320 Z" fill="#ff8a61"/><text x="220" y="220" font-family="Arial" font-size="17">Social Media</text><text x="220" y="242" font-family="Arial" font-size="16">38.4%</text><text x="340" y="220" font-family="Arial" font-size="17">Work/Study</text><text x="340" y="242" font-family="Arial" font-size="16">38.0%</text><text x="300" y="365" text-anchor="middle" font-family="Arial" font-size="17">Gaming 23.6%</text><text x="820" y="85" text-anchor="middle" font-family="Arial" font-size="20">Activity Hours by Addiction Level</text><line x1="650" y1="350" x2="1130" y2="350" stroke="#333"/><g><rect x="690" y="180" width="35" height="170" fill="#64c1a5"/><rect x="725" y="200" width="35" height="150" fill="#ff8a61"/><rect x="760" y="105" width="35" height="245" fill="#8da0cb"/><rect x="850" y="100" width="35" height="250" fill="#64c1a5"/><rect x="885" y="195" width="35" height="155" fill="#ff8a61"/><rect x="920" y="105" width="35" height="245" fill="#8da0cb"/><rect x="1010" y="80" width="35" height="270" fill="#64c1a5"/><rect x="1045" y="200" width="35" height="150" fill="#ff8a61"/><rect x="1080" y="105" width="35" height="245" fill="#8da0cb"/></g><g font-family="Arial" font-size="15" text-anchor="middle"><text x="742" y="375">Mild</text><text x="902" y="375">Moderate</text><text x="1062" y="375">Severe</text></g><g font-family="Arial" font-size="14"><rect x="650" y="120" width="14" height="14" fill="#64c1a5"/><text x="672" y="133">Social Media</text><rect x="650" y="145" width="14" height="14" fill="#ff8a61"/><text x="672" y="158">Gaming</text><rect x="650" y="170" width="14" height="14" fill="#8da0cb"/><text x="672" y="183">Work/Study</text></g></svg>